<?xml version="1.0" standalone="no"?>
<!DOCTYPE svg PUBLIC "-//W3C//DTD SVG 20010904//EN"
 "http://www.w3.org/TR/2001/REC-SVG-20010904/DTD/svg10.dtd">
<svg version="1.0" xmlns="http://www.w3.org/2000/svg"
 width="1280.000000pt" height="720.000000pt" viewBox="0 0 1280.000000 720.000000"
 preserveAspectRatio="xMidYMid meet">

<g transform="translate(0.000000,720.000000) scale(0.100000,-0.100000)"
fill="#141414" stroke="none">
<path d="M625 4909 c-71 -5 -175 -15 -230 -22 l-100 -12 -3 -1138 -2 -1137
255 0 255 0 0 455 0 455 63 0 c121 0 225 -18 280 -47 97 -53 132 -122 198
-388 48 -190 91 -343 121 -419 l21 -56 267 0 268 0 -19 50 c-10 27 -53 175
-94 327 -92 338 -108 389 -153 478 -39 79 -134 180 -196 209 l-39 18 79 42
c250 130 376 396 320 675 -57 279 -241 434 -591 497 -109 19 -507 27 -700 13z
m610 -412 c120 -56 166 -125 173 -258 5 -108 -13 -169 -70 -234 -80 -90 -189
-125 -400 -125 l-138 0 0 319 0 320 28 4 c15 3 99 4 187 3 152 -1 163 -3 220
-29z"/>
<path d="M2928 4300 c-300 -48 -517 -197 -637 -437 -62 -126 -83 -221 -88
-403 -4 -142 -2 -178 16 -260 90 -405 441 -658 881 -637 434 22 739 277 815
682 24 126 16 369 -14 475 -47 159 -141 309 -255 401 -78 64 -218 133 -321
160 -91 23 -305 33 -397 19z m257 -384 c125 -58 199 -211 212 -436 13 -249
-73 -458 -216 -524 -57 -25 -168 -27 -223 -3 -90 39 -167 143 -204 278 -25 90
-25 318 -1 409 40 146 116 251 208 283 68 24 164 21 224 -7z"/>
<path d="M5081 4294 c-115 -24 -206 -75 -292 -164 -87 -88 -84 -89 -94 30 -10
122 15 110 -232 110 l-216 0 6 -167 c4 -91 7 -467 7 -835 l0 -668 249 0 250 0
4 528 c2 374 7 538 16 564 18 57 72 129 119 163 40 27 51 30 126 30 108 0 150
-25 195 -117 44 -90 51 -179 51 -710 l0 -458 250 0 250 0 0 515 c0 332 4 532
11 565 14 64 62 136 116 174 33 23 57 31 103 34 94 7 126 -3 179 -56 91 -91
100 -166 101 -789 l0 -443 251 0 250 0 -4 588 c-3 568 -4 590 -26 672 -63 241
-205 392 -409 436 -139 29 -283 11 -412 -53 -57 -28 -96 -58 -164 -125 -49
-49 -89 -88 -90 -86 -1 2 -11 21 -21 42 -31 60 -114 140 -184 176 -114 57
-256 74 -390 44z"/>
<path d="M7648 4299 c-110 -13 -291 -61 -375 -99 -40 -18 -73 -36 -73 -40 0
-13 89 -322 94 -327 3 -3 17 2 30 11 35 22 161 71 221 85 223 52 421 18 480
-83 14 -23 28 -64 31 -89 l7 -47 -61 0 c-33 0 -106 -5 -163 -11 -491 -50 -758
-268 -759 -619 0 -198 106 -378 271 -459 221 -108 517 -68 699 96 28 25 52 44
54 42 2 -2 10 -38 17 -79 l14 -75 234 -3 234 -2 -8 42 c-4 24 -10 284 -14 578
-7 504 -9 540 -29 615 -66 241 -208 383 -449 446 -91 24 -330 34 -455 18z
m426 -1035 c-1 -68 -7 -137 -14 -159 -18 -54 -91 -129 -151 -155 -57 -24 -154
-29 -204 -10 -90 34 -135 143 -105 252 21 75 98 136 207 165 57 15 194 32 243
29 l25 -1 -1 -121z"/>
<path d="M9830 4294 c-124 -26 -257 -109 -339 -209 l-36 -45 -7 33 c-4 17 -10
69 -13 115 l-7 82 -226 0 -225 0 6 -167 c4 -91 7 -467 7 -835 l0 -668 260 0
259 0 3 538 3 537 35 64 c52 97 134 149 235 150 81 1 125 -16 176 -68 85 -88
83 -72 87 -683 l3 -538 260 0 260 0 -3 588 c-4 569 -5 590 -26 667 -67 243
-214 395 -427 440 -86 18 -199 18 -285 -1z"/>
<path d="M11628 4300 c-300 -48 -517 -197 -637 -437 -62 -126 -83 -221 -88
-403 -4 -142 -2 -178 16 -260 90 -405 441 -658 881 -637 434 22 739 277 815
682 24 126 16 369 -14 475 -47 159 -141 309 -255 401 -78 64 -218 133 -321
160 -91 23 -305 33 -397 19z m257 -384 c125 -58 199 -211 212 -436 13 -249
-73 -458 -216 -524 -57 -25 -168 -27 -223 -3 -90 39 -167 143 -204 278 -25 90
-25 318 -1 409 40 146 116 251 208 283 68 24 164 21 224 -7z"/>
</g>
</svg>
